<svg xmlns="http://www.w3.org/2000/svg" width="56" height="56" viewBox="0 0 56 56"><g><g><path fill="#72ba00" d="M.112 28.056C.112 12.623 12.623.112 28.056.112S56 12.623 56 28.056 43.489 56 28.056 56 .112 43.489.112 28.056z"/></g><g><path fill="#fff" d="M43.25 20.022l-18.163 19.91a2.984 2.984 0 0 1-4.541 0l-7.685-8.558c-1.047-1.222-1.047-3.143.175-4.366 1.223-1.048 3.144-1.048 4.366.175l5.414 6.112 15.894-17.29c1.222-1.223 3.143-1.397 4.366-.175 1.222 1.048 1.222 3.144.174 4.192z"/></g></g></svg>