<?xml version="1.0" encoding="utf-8"?>
<!-- Generator: Adobe Illustrator 25.2.0, SVG Export Plug-In . SVG Version: 6.00 Build 0)  -->
<svg version="1.1" id="Layer_1" xmlns="http://www.w3.org/2000/svg" xmlns:xlink="http://www.w3.org/1999/xlink" x="0px" y="0px"
	 viewBox="0 0 595.3 383" style="enable-background:new 0 0 595.3 383;" xml:space="preserve">
<style type="text/css">
	.st0{fill:#E52521;}
	.st1{fill:#FFFFFF;}
</style>
<g>
	<path class="st0" d="M454.6,175.5c0-28.9-23.4-52.3-52.3-52.3l0,0l-226.6-0.4c-9-1.2-17.8,1.5-24.7,7.6c-4.8,4.3-8.2,10-9.6,16.3
		c-1,4.6-1,9.1,0,13.4h0l0,0.1c0.2,1.1,0.5,2.1,0.9,3.1l23.7,84.4c0.4,6.1,2.5,11.9,6.3,16.8c5,6.6,12.3,10.8,20.5,11.9
		c1.4,0.2,2.7,0.3,4.1,0.3c13,0,24.6-8.2,29-20.3c1.4-3.8,4.9-6.4,9-6.5l130.9-3.6c3.8-0.1,7.3,2.2,8.8,5.7c1.5,3.4,3.6,6.6,6.3,9.5
		c4.3,4.5,9.9,7.5,16,8.8c2.1,0.4,4.2,0.6,6.3,0.6c6.8,0,13.3-2.2,18.8-6.4c5.8-4.5,9.8-10.7,11.4-17.8v0l18-52.8l0,0
		C453.4,188,454.6,181.8,454.6,175.5"/>
	<g>
		<path class="st1" d="M196.9,234.2c-6.7,0-12.1,5.4-12.1,12.1c0,6.7,5.4,12.1,12.1,12.1c6.7,0,12.1-5.4,12.1-12.1
			C208.9,239.6,203.5,234.2,196.9,234.2z"/>
		<path class="st1" d="M403.2,227.6c-6.7,0-12.1,5.4-12.1,12.1c0,6.7,5.4,12.1,12.1,12.1c6.7,0,12.1-5.4,12.1-12.1
			C415.2,233,409.8,227.6,403.2,227.6z"/>
		<path class="st1" d="M291.3,199.4c13.2,0,24-10.7,24-24c0-13.2-10.7-24-24-24c-13.2,0-24,10.7-24,24
			C267.3,188.7,278.1,199.4,291.3,199.4z M291.3,163.9c6.4,0,11.5,5.2,11.5,11.5c0,6.4-5.2,11.5-11.5,11.5
			c-6.4,0-11.5-5.2-11.5-11.5C279.8,169.1,284.9,163.9,291.3,163.9z"/>
		<path class="st1" d="M402.2,199.4c13.2,0,24-10.7,24-24c0-13.2-10.7-24-24-24c-13.2,0-24,10.7-24,24
			C378.3,188.7,389,199.4,402.2,199.4z M402.2,163.9c6.4,0,11.5,5.2,11.5,11.5c0,6.4-5.2,11.5-11.5,11.5c-6.4,0-11.5-5.2-11.5-11.5
			C390.7,169.1,395.9,163.9,402.2,163.9z"/>
		<path class="st1" d="M218.6,200.4c3.4,0,6.2-2.8,6.2-6.2v-18.9c0-6.5,5.3-11.8,11.8-11.8c6.5,0,11.8,5.3,11.8,11.8v18.9
			c0,3.4,2.8,6.2,6.2,6.2c3.4,0,6.2-2.8,6.2-6.2c0-0.5-0.2-18.9-0.2-18.9c0-13.2-10.7-24-24-24c-13.2,0-24,10.7-24,24
			c0,0-0.2,18.4-0.2,18.9C212.4,197.6,215.2,200.4,218.6,200.4z"/>
		<path class="st1" d="M341.3,195.9c1,2,3.1,3.4,5.5,3.4c2.3,0,4.3-1.2,5.3-3.1l0.2-0.5l18.4-35.1c0.5-0.9,0.8-1.9,0.8-3
			c0-3.4-2.8-6.2-6.2-6.2c-2.5,0-4.6,1.5-5.6,3.6l-13,26.2L334,156.1c-0.7-2.6-3.1-4.6-6-4.6c-3.4,0-6.2,2.8-6.2,6.2
			c0,1.1,0.3,2.1,0.8,3L341.3,195.9z"/>
		<path class="st1" d="M426.5,215.6l-229.7,0.1c-1.6,0-2.9-1.3-2.9-2.9c0-0.7,0.3-1.4,0.7-1.9l7-6.4c1.1-1,1.8-2.5,1.8-4.1
			c0-0.3,0-0.5-0.1-0.8l-0.1-0.4l-9.1-51.2c0-3.2-2.5-5.8-5.6-6.1v0h-24.2c-3.4,0-6.2,2.8-6.2,6.2c0,3.4,2.8,6.2,6.2,6.2h16.9
			c1.6,0,2.8,1.3,2.8,2.8l3.7,19.5l4,18.9c0,0,0,0.1,0,0.1c0,0.2,0.1,0.4,0.1,0.6c0,0.8-0.3,1.5-0.8,2.1l0,0l-2,2.2L172.3,217h0
			c-1.1,1.1-1.8,2.6-1.8,4.3c0,3.4,2.7,6.1,6.1,6.1l250-5.9c1.6,0,2.9-1.3,2.9-2.9C429.5,217,428.2,215.6,426.5,215.6z"/>
	</g>
</g>
</svg>
